<?xml version="1.0" encoding="UTF-8" standalone="no"?>
<!-- Created with Inkscape (http://www.inkscape.org/) -->

<svg
   xmlns:dc="http://purl.org/dc/elements/1.1/"
   xmlns:cc="http://creativecommons.org/ns#"
   xmlns:rdf="http://www.w3.org/1999/02/22-rdf-syntax-ns#"
   xmlns:svg="http://www.w3.org/2000/svg"
   xmlns="http://www.w3.org/2000/svg"
   xmlns:sodipodi="http://sodipodi.sourceforge.net/DTD/sodipodi-0.dtd"
   xmlns:inkscape="http://www.inkscape.org/namespaces/inkscape"
   version="1.1"
   id="svg2"
   xml:space="preserve"
   width="512"
   height="512"
   viewBox="0 0 512 512"
   sodipodi:docname="icon.svg"
   inkscape:version="0.92.4 (5da689c313, 2019-01-14)"
   inkscape:export-filename="/home/fabian/Documents/CodeProjects/local/wsr-wp-plugins-assets/open-booking-calendar/icon-256x256.png"
   inkscape:export-xdpi="48.709999"
   inkscape:export-ydpi="48.709999"><metadata
     id="metadata8"><rdf:RDF><cc:Work
         rdf:about=""><dc:format>image/svg+xml</dc:format><dc:type
           rdf:resource="http://purl.org/dc/dcmitype/StillImage" /><dc:title></dc:title></cc:Work></rdf:RDF></metadata><defs
     id="defs6"><clipPath
       clipPathUnits="userSpaceOnUse"
       id="clipPath614"><path
         d="m 1440,854.461 c -98.87,0 -192.01,24.508 -273.69,67.769 -3.24,1.719 -6.45,3.461 -9.66,5.239 -128.67,71.293 -227.689,189.671 -273.771,331.841 -1.566,4.83 -3.063,9.66 -4.504,14.54 -15.555,52.67 -23.906,108.44 -23.906,166.15 0,96.99 23.57,188.45 65.312,269 1.309,2.53 2.645,5.06 3.989,7.56 1.882,3.51 3.8,7 5.753,10.46 1.27,2.25 2.567,4.52 3.86,6.75 59.285,102.02 148.497,184.48 255.627,235.39 2.56,1.22 5.12,2.41 7.7,3.59 0.16,0.07 0.31,0.14 0.48,0.21 4.94,2.26 9.92,4.45 14.94,6.57 v 0 0 c 8.11,3.43 16.29,6.68 24.58,9.74 l 0.01,0.01 c 5.09,1.88 10.21,3.7 15.37,5.44 2.69,0.92 5.42,1.82 8.13,2.69 0.45,0.14 0.86,0.28 1.31,0.42 56.27,17.99 116.24,27.7 178.47,27.7 263.83,0 486.91,-174.49 560.12,-414.36 1.21,-3.99 2.38,-7.97 3.51,-11.99 3.37,-11.95 6.37,-24.06 8.99,-36.3 1.43,-6.7 2.74,-13.44 3.94,-20.22 4.05,-22.88 6.77,-46.25 8.07,-69.96 0.17,-3.04 0.31,-6.07 0.44,-9.12 0.08,-2.03 0.15,-4.08 0.21,-6.12 0.07,-2.63 0.13,-5.24 0.17,-7.87 0.06,-3.19 0.08,-6.39 0.08,-9.59 0,-262.75 -173.06,-485.078 -411.41,-559.211 -2.45,-0.758 -4.89,-1.508 -7.35,-2.238 -5.35,-1.582 -10.76,-3.102 -16.17,-4.539 -2.62,-0.692 -5.25,-1.371 -7.89,-2.032 -45.68,-11.441 -93.48,-17.519 -142.71,-17.519 m 0,1142.639 c -307.19,0 -557.102,-249.91 -557.102,-557.1 0,-307.19 249.912,-557.109 557.102,-557.109 307.19,0 557.1,249.919 557.1,557.109 0,307.19 -249.91,557.1 -557.1,557.1 m 0,-1104.209 c -301.67,0 -547.102,245.429 -547.102,547.109 0,301.67 245.432,547.1 547.102,547.1 301.67,0 547.1,-245.43 547.1,-547.1 0,-301.68 -245.43,-547.109 -547.1,-547.109"
         id="path612"
         inkscape:connector-curvature="0" /></clipPath><linearGradient
       x1="0"
       y1="0"
       x2="1"
       y2="0"
       gradientUnits="userSpaceOnUse"
       gradientTransform="matrix(796.67,1006.67,1006.67,-796.67,1063.18,963.84)"
       spreadMethod="pad"
       id="linearGradient620"><stop
         style="stop-opacity:1;stop-color:#100f0d"
         offset="0"
         id="stop616" /><stop
         style="stop-opacity:1;stop-color:#292827"
         offset="1"
         id="stop618" /></linearGradient><clipPath
       clipPathUnits="userSpaceOnUse"
       id="clipPath630"><path
         d="m 1440,882.891 c -307.19,0 -557.102,249.919 -557.102,557.109 0,307.19 249.912,557.1 557.102,557.1 307.19,0 557.1,-249.91 557.1,-557.1 0,-307.19 -249.91,-557.109 -557.1,-557.109 m 0,1104.209 c -301.67,0 -547.102,-245.43 -547.102,-547.1 0,-301.68 245.432,-547.109 547.102,-547.109 301.67,0 547.1,245.429 547.1,547.109 0,301.67 -245.43,547.1 -547.1,547.1"
         id="path628"
         inkscape:connector-curvature="0" /></clipPath><linearGradient
       x1="0"
       y1="0"
       x2="1"
       y2="0"
       gradientUnits="userSpaceOnUse"
       gradientTransform="matrix(796.67,1006.67,1006.67,-796.67,1063.18,963.84)"
       spreadMethod="pad"
       id="linearGradient636"><stop
         style="stop-opacity:1;stop-color:#100f0d"
         offset="0"
         id="stop632" /><stop
         style="stop-opacity:1;stop-color:#222121"
         offset="1"
         id="stop634" /></linearGradient></defs><sodipodi:namedview
     pagecolor="#ffffff"
     bordercolor="#666666"
     borderopacity="1"
     objecttolerance="10"
     gridtolerance="10"
     guidetolerance="10"
     inkscape:pageopacity="0"
     inkscape:pageshadow="2"
     inkscape:window-width="1874"
     inkscape:window-height="1016"
     id="namedview4"
     showgrid="false"
     inkscape:zoom="0.86915209"
     inkscape:cx="304.143"
     inkscape:cy="302.69833"
     inkscape:window-x="46"
     inkscape:window-y="27"
     inkscape:window-maximized="1"
     inkscape:current-layer="g10" /><g
     id="g10"
     inkscape:groupmode="layer"
     inkscape:label="ink_ext_XXXXXX"
     transform="matrix(1.3333333,0,0,-1.3333333,0,512)"><path
   style="fill:#161514;fill-opacity:1;stroke-width:0.8951571"
   d="M 174.52408,3.5966326 C 74.465238,13.146321 -1.2611951,99.643953 2.9623436,199.56101 6.8995908,292.70524 76.645964,368.44519 169.11911,379.99625 c 11.92047,1.48901 31.89656,1.65761 43.44914,0.36672 69.20829,-7.73344 128.51367,-52.51814 154.7645,-116.87107 C 390.8913,205.73902 384.12854,139.00525 349.463,87.156544 310.94303,29.542778 242.95043,-2.9340224 174.52408,3.5966326 Z"
   id="path940"
   inkscape:connector-curvature="0" /><path
   inkscape:connector-curvature="0"
   id="path692"
   style="fill:#e9eae9;fill-opacity:1;fill-rule:nonzero;stroke:none;stroke-width:0.30633181"
   d="m 314.93423,250.81481 h -58.09889 v 1.61131 h 58.09889 v -1.61131" /><path
   inkscape:connector-curvature="0"
   id="path694"
   style="fill:#e9eae9;fill-opacity:1;fill-rule:nonzero;stroke:none;stroke-width:0.30633181"
   d="M 126.72703,250.81481 H 68.628145 v 1.61131 h 58.098885 v -1.61131" /><g
   aria-label="OPEN"
   transform="scale(1,-1)"
   style="font-style:normal;font-weight:normal;font-size:15px;line-height:1.25;font-family:sans-serif;letter-spacing:0.075px;word-spacing:0px;fill:#e6e6e6;fill-opacity:1;stroke:none;stroke-width:0.75"
   id="text1135"><path
     d="m 161.97413,-252.48777 q 0,1.908 -0.648,3.54 -0.636,1.632 -1.812,2.82 -1.164,1.188 -2.808,1.872 -1.644,0.672 -3.648,0.672 -2.004,0 -3.648,-0.672 -1.644,-0.684 -2.82,-1.872 -1.176,-1.188 -1.824,-2.82 -0.636,-1.632 -0.636,-3.54 0,-1.908 0.636,-3.528 0.648,-1.632 1.824,-2.82 1.176,-1.188 2.82,-1.86 1.644,-0.684 3.648,-0.684 2.004,0 3.648,0.684 1.644,0.672 2.808,1.872 1.176,1.188 1.812,2.82 0.648,1.62 0.648,3.516 z m -3.684,0 q 0,-1.368 -0.36,-2.448 -0.36,-1.092 -1.044,-1.848 -0.672,-0.768 -1.644,-1.164 -0.96,-0.408 -2.184,-0.408 -1.224,0 -2.196,0.408 -0.972,0.396 -1.656,1.164 -0.672,0.756 -1.032,1.848 -0.36,1.08 -0.36,2.448 0,1.38 0.36,2.472 0.36,1.08 1.032,1.836 0.684,0.756 1.656,1.164 0.972,0.396 2.196,0.396 1.224,0 2.184,-0.396 0.972,-0.408 1.644,-1.164 0.684,-0.756 1.044,-1.836 0.36,-1.092 0.36,-2.472 z"
     style="font-style:normal;font-variant:normal;font-weight:800;font-stretch:normal;font-size:24px;font-family:Lato;-inkscape-font-specification:'Lato Ultra-Bold';letter-spacing:10.50750065px;fill:#e6e6e6;stroke-width:0.75"
     id="path1083" /><path
     d="m 178.71075,-249.76377 v 5.988 h -3.6 v -17.412 h 5.88 q 1.788,0 3.084,0.42 1.308,0.42 2.148,1.176 0.84,0.744 1.236,1.776 0.408,1.032 0.408,2.244 0,1.284 -0.42,2.352 -0.42,1.068 -1.272,1.836 -0.852,0.768 -2.148,1.2 -1.296,0.42 -3.036,0.42 z m 0,-2.76 h 2.28 q 1.692,0 2.472,-0.816 0.792,-0.816 0.792,-2.232 0,-0.648 -0.204,-1.176 -0.192,-0.54 -0.6,-0.912 -0.396,-0.384 -1.008,-0.588 -0.612,-0.204 -1.452,-0.204 h -2.28 z"
     style="font-style:normal;font-variant:normal;font-weight:800;font-stretch:normal;font-size:24px;font-family:Lato;-inkscape-font-specification:'Lato Ultra-Bold';letter-spacing:10.50750065px;fill:#e6e6e6;stroke-width:0.75"
     id="path1085" /><path
     d="m 211.75313,-261.18777 v 2.82 h -7.464 v 4.476 h 5.808 v 2.724 h -5.808 v 4.572 h 7.464 v 2.82 h -11.088 v -17.412 z"
     style="font-style:normal;font-variant:normal;font-weight:800;font-stretch:normal;font-size:24px;font-family:Lato;-inkscape-font-specification:'Lato Ultra-Bold';letter-spacing:10.50750065px;fill:#e6e6e6;stroke-width:0.75"
     id="path1087" /><path
     d="m 226.84988,-261.18777 q 0.228,0 0.384,0.024 0.168,0.012 0.3,0.084 0.132,0.06 0.252,0.168 0.12,0.108 0.264,0.288 l 8.736,11.1 q -0.048,-0.456 -0.072,-0.888 -0.024,-0.432 -0.024,-0.816 v -9.96 h 3.18 v 17.412 h -1.86 q -0.42,0 -0.708,-0.132 -0.288,-0.144 -0.564,-0.48 l -8.676,-11.028 q 0.036,0.42 0.048,0.828 0.024,0.396 0.024,0.744 v 10.068 h -3.18 v -17.412 h 1.896 z"
     style="font-style:normal;font-variant:normal;font-weight:800;font-stretch:normal;font-size:24px;font-family:Lato;-inkscape-font-specification:'Lato Ultra-Bold';letter-spacing:10.50750065px;fill:#e6e6e6;stroke-width:0.75"
     id="path1089" /></g>


<g
   aria-label="CALENDAR"
   transform="scale(1,-1)"
   style="font-style:normal;font-weight:normal;font-size:15px;line-height:1.25;font-family:sans-serif;letter-spacing:0.075px;word-spacing:0px;fill:#e6e6e6;fill-opacity:1;stroke:none;stroke-width:0.75"
   id="text1135-8"><path
     d="m 96.775901,-128.05977 q 0.3,0 0.504,0.216 l 1.428,1.524 q -1.056,1.344 -2.628,2.04 -1.56,0.696 -3.72,0.696 -1.956,0 -3.516,-0.66 -1.56,-0.672 -2.652,-1.86 -1.092,-1.188 -1.68,-2.82 -0.588,-1.632 -0.588,-3.564 0,-1.296 0.276,-2.46 0.288,-1.176 0.828,-2.16 0.54,-0.984 1.296,-1.776 0.768,-0.792 1.728,-1.344 0.96,-0.564 2.088,-0.852 1.14,-0.3 2.424,-0.3 0.96,0 1.812,0.168 0.864,0.168 1.608,0.468 0.744,0.3 1.368,0.732 0.636,0.42 1.14,0.924 l -1.212,1.656 q -0.108,0.156 -0.276,0.276 -0.168,0.12 -0.456,0.12 -0.288,0 -0.588,-0.204 -0.288,-0.204 -0.72,-0.456 -0.42,-0.252 -1.068,-0.456 -0.636,-0.204 -1.62,-0.204 -1.092,0 -2.004,0.396 -0.912,0.396 -1.572,1.152 -0.648,0.744 -1.008,1.836 -0.36,1.092 -0.36,2.484 0,1.404 0.384,2.508 0.396,1.092 1.068,1.848 0.684,0.756 1.584,1.152 0.912,0.384 1.944,0.384 0.612,0 1.104,-0.06 0.504,-0.06 0.924,-0.204 0.432,-0.144 0.804,-0.372 0.384,-0.228 0.768,-0.576 0.132,-0.108 0.276,-0.18 0.144,-0.072 0.312,-0.072 z"
     style="font-style:normal;font-variant:normal;font-weight:800;font-stretch:normal;font-size:24px;font-family:Lato;-inkscape-font-specification:'Lato Ultra-Bold';letter-spacing:13.17000008px;fill:#e6e6e6;stroke-width:0.75"
     id="path1092" /><path
     d="m 129.12678,-123.77577 h -2.796 q -0.468,0 -0.768,-0.216 -0.288,-0.228 -0.432,-0.576 l -1.176,-3.324 h -6.936 l -1.176,3.324 q -0.12,0.3 -0.42,0.552 -0.3,0.24 -0.756,0.24 h -2.82 l 6.804,-17.412 h 3.684 z m -11.232,-6.612 h 5.184 l -1.884,-5.328 q -0.168,-0.42 -0.36,-0.984 -0.18,-0.564 -0.36,-1.212 -0.168,0.66 -0.348,1.236 -0.18,0.564 -0.348,0.984 z"
     style="font-style:normal;font-variant:normal;font-weight:800;font-stretch:normal;font-size:24px;font-family:Lato;-inkscape-font-specification:'Lato Ultra-Bold';letter-spacing:13.17000008px;fill:#e6e6e6;stroke-width:0.75"
     id="path1094" /><path
     d="m 147.4849,-126.70377 h 6.732 v 2.928 h -10.332 v -17.412 h 3.6 z"
     style="font-style:normal;font-variant:normal;font-weight:800;font-stretch:normal;font-size:24px;font-family:Lato;-inkscape-font-specification:'Lato Ultra-Bold';letter-spacing:13.17000008px;fill:#e6e6e6;stroke-width:0.75"
     id="path1096" /><path
     d="m 180.65853,-141.18777 v 2.82 h -7.464 v 4.476 h 5.808 v 2.724 h -5.808 v 4.572 h 7.464 v 2.82 h -11.088 v -17.412 z"
     style="font-style:normal;font-variant:normal;font-weight:800;font-stretch:normal;font-size:24px;font-family:Lato;-inkscape-font-specification:'Lato Ultra-Bold';letter-spacing:13.17000008px;fill:#e6e6e6;stroke-width:0.75"
     id="path1098" /><path
     d="m 198.41778,-141.18777 q 0.228,0 0.384,0.024 0.168,0.012 0.3,0.084 0.132,0.06 0.252,0.168 0.12,0.108 0.264,0.288 l 8.736,11.1 q -0.048,-0.456 -0.072,-0.888 -0.024,-0.432 -0.024,-0.816 v -9.96 h 3.18 v 17.412 h -1.86 q -0.42,0 -0.708,-0.132 -0.288,-0.144 -0.564,-0.48 l -8.676,-11.028 q 0.036,0.42 0.048,0.828 0.024,0.396 0.024,0.744 v 10.068 h -3.18 v -17.412 h 1.896 z"
     style="font-style:normal;font-variant:normal;font-weight:800;font-stretch:normal;font-size:24px;font-family:Lato;-inkscape-font-specification:'Lato Ultra-Bold';letter-spacing:13.17000008px;fill:#e6e6e6;stroke-width:0.75"
     id="path1100" /><path
     d="m 243.86628,-132.48777 q 0,1.908 -0.648,3.516 -0.636,1.596 -1.812,2.748 -1.164,1.152 -2.808,1.8 -1.644,0.648 -3.648,0.648 h -6.696 v -17.412 h 6.696 q 2.004,0 3.648,0.648 1.644,0.648 2.808,1.812 1.176,1.152 1.812,2.748 0.648,1.596 0.648,3.492 z m -3.696,0 q 0,-1.368 -0.36,-2.46 -0.36,-1.092 -1.032,-1.848 -0.672,-0.756 -1.644,-1.164 -0.96,-0.408 -2.184,-0.408 h -3.072 v 11.772 h 3.072 q 1.224,0 2.184,-0.396 0.972,-0.408 1.644,-1.164 0.672,-0.768 1.032,-1.86 0.36,-1.092 0.36,-2.472 z"
     style="font-style:normal;font-variant:normal;font-weight:800;font-stretch:normal;font-size:24px;font-family:Lato;-inkscape-font-specification:'Lato Ultra-Bold';letter-spacing:13.17000008px;fill:#e6e6e6;stroke-width:0.75"
     id="path1102" /><path
     d="m 274.38303,-123.77577 h -2.796 q -0.468,0 -0.768,-0.216 -0.288,-0.228 -0.432,-0.576 l -1.176,-3.324 h -6.936 l -1.176,3.324 q -0.12,0.3 -0.42,0.552 -0.3,0.24 -0.756,0.24 h -2.82 l 6.804,-17.412 h 3.684 z m -11.232,-6.612 h 5.184 l -1.884,-5.328 q -0.168,-0.42 -0.36,-0.984 -0.18,-0.564 -0.36,-1.212 -0.168,0.66 -0.348,1.236 -0.18,0.564 -0.348,0.984 z"
     style="font-style:normal;font-variant:normal;font-weight:800;font-stretch:normal;font-size:24px;font-family:Lato;-inkscape-font-specification:'Lato Ultra-Bold';letter-spacing:13.17000008px;fill:#e6e6e6;stroke-width:0.75"
     id="path1104" /><path
     d="m 292.74115,-130.41177 v 6.636 h -3.6 v -17.412 h 5.472 q 1.824,0 3.12,0.384 1.296,0.372 2.124,1.044 0.828,0.672 1.212,1.608 0.384,0.924 0.384,2.04 0,0.864 -0.252,1.644 -0.24,0.768 -0.708,1.404 -0.468,0.636 -1.152,1.128 -0.684,0.492 -1.572,0.792 0.348,0.192 0.648,0.468 0.312,0.264 0.552,0.636 l 4.056,6.264 h -3.252 q -0.912,0 -1.32,-0.696 l -3.312,-5.34 q -0.204,-0.312 -0.456,-0.456 -0.24,-0.144 -0.72,-0.144 z m 0,-2.532 h 1.848 q 0.876,0 1.512,-0.216 0.636,-0.228 1.044,-0.612 0.408,-0.396 0.6,-0.924 0.192,-0.528 0.192,-1.152 0,-1.236 -0.828,-1.92 -0.816,-0.684 -2.496,-0.684 h -1.872 z"
     style="font-style:normal;font-variant:normal;font-weight:800;font-stretch:normal;font-size:24px;font-family:Lato;-inkscape-font-specification:'Lato Ultra-Bold';letter-spacing:13.17000008px;fill:#e6e6e6;stroke-width:0.75"
     id="path1106" /></g>


<g
   aria-label="BOOKING"
   transform="scale(1,-1)"
   style="font-style:normal;font-variant:normal;font-weight:normal;font-stretch:normal;font-size:61.99999619px;line-height:1.25;font-family:'Pathway Gothic One';-inkscape-font-specification:'Pathway Gothic One';letter-spacing:13.5px;word-spacing:0px;fill:#e6e6e6;fill-opacity:1;stroke:none;stroke-width:0.75"
   id="text1135-8-4"><path
     d="m 60.51788,-166.8 v -50.4 h 8.208 q 5.4,0 8.28,3.024 2.952,3.024 2.952,10.584 0,8.784 -6.12,10.8 7.2,1.584 7.2,11.592 0,7.992 -2.952,11.232 -2.952,3.168 -8.208,3.168 z m 14.904,-13.032 v -1.944 q 0,-9 -5.688,-9 h -3.456 v 19.44 h 3.456 q 2.736,0 4.176,-1.872 1.512,-1.872 1.512,-6.624 z m -0.792,-23.184 v -1.728 q 0,-4.536 -1.44,-6.192 -1.44,-1.728 -4.104,-1.728 h -2.808 v 18.072 h 2.808 q 5.544,0 5.544,-8.424 z"
     style="font-style:normal;font-variant:normal;font-weight:normal;font-stretch:normal;font-size:72px;font-family:'Pathway Gothic One';-inkscape-font-specification:'Pathway Gothic One';letter-spacing:13.5px;fill:#e6e6e6;stroke-width:0.75"
     id="path1068" /><path
     d="m 123.10838,-202.152 v 20.304 q 0,9.144 -2.952,12.672 -2.88,3.456 -8.352,3.456 -5.4,0 -8.352,-3.456 -2.88,-3.528 -2.88,-12.672 v -20.304 q 0,-9.144 2.88,-12.6 2.952,-3.528 8.352,-3.528 5.472,0 8.352,3.528 2.952,3.456 2.952,12.6 z m -5.688,21.384 v -22.464 q 0,-10.368 -5.544,-10.368 -2.664,0 -4.176,2.232 -1.44,2.232 -1.44,8.136 v 22.464 q 0,5.904 1.44,8.136 1.512,2.232 4.176,2.232 5.544,0 5.544,-10.368 z"
     style="font-style:normal;font-variant:normal;font-weight:normal;font-stretch:normal;font-size:72px;font-family:'Pathway Gothic One';-inkscape-font-specification:'Pathway Gothic One';letter-spacing:13.5px;fill:#e6e6e6;stroke-width:0.75"
     id="path1070" /><path
     d="m 166.13963,-202.152 v 20.304 q 0,9.144 -2.952,12.672 -2.88,3.456 -8.352,3.456 -5.4,0 -8.352,-3.456 -2.88,-3.528 -2.88,-12.672 v -20.304 q 0,-9.144 2.88,-12.6 2.952,-3.528 8.352,-3.528 5.472,0 8.352,3.528 2.952,3.456 2.952,12.6 z m -5.688,21.384 v -22.464 q 0,-10.368 -5.544,-10.368 -2.664,0 -4.176,2.232 -1.44,2.232 -1.44,8.136 v 22.464 q 0,5.904 1.44,8.136 1.512,2.232 4.176,2.232 5.544,0 5.544,-10.368 z"
     style="font-style:normal;font-variant:normal;font-weight:normal;font-stretch:normal;font-size:72px;font-family:'Pathway Gothic One';-inkscape-font-specification:'Pathway Gothic One';letter-spacing:13.5px;fill:#e6e6e6;stroke-width:0.75"
     id="path1072" /><path
     d="m 193.40288,-166.8 h -5.76 v -50.4 h 5.76 v 21.312 l 10.584,-21.312 h 5.76 l -11.016,21.672 11.448,28.728 h -5.76 l -8.712,-22.68 -2.304,4.536 z"
     style="font-style:normal;font-variant:normal;font-weight:normal;font-stretch:normal;font-size:72px;font-family:'Pathway Gothic One';-inkscape-font-specification:'Pathway Gothic One';letter-spacing:13.5px;fill:#e6e6e6;stroke-width:0.75"
     id="path1074" /><path
     d="m 228.56476,-166.8 v -50.4 h 5.76 v 50.4 z"
     style="font-style:normal;font-variant:normal;font-weight:normal;font-stretch:normal;font-size:72px;font-family:'Pathway Gothic One';-inkscape-font-specification:'Pathway Gothic One';letter-spacing:13.5px;fill:#e6e6e6;stroke-width:0.75"
     id="path1076" /><path
     d="m 262.44638,-166.8 h -5.616 v -50.4 h 5.976 l 11.736,36.864 V -217.2 h 5.616 v 50.4 h -5.976 l -11.736,-36.792 z"
     style="font-style:normal;font-variant:normal;font-weight:normal;font-stretch:normal;font-size:72px;font-family:'Pathway Gothic One';-inkscape-font-specification:'Pathway Gothic One';letter-spacing:13.5px;fill:#e6e6e6;stroke-width:0.75"
     id="path1078" /><path
     d="m 312.17813,-188.904 v -4.608 h 11.304 v 26.64 h -3.528 l -1.008,-4.68 q -2.16,5.832 -7.776,5.832 -4.536,0 -7.056,-3.456 -2.448,-3.528 -2.448,-12.672 v -19.944 q 0,-9.432 2.88,-12.96 2.88,-3.528 7.704,-3.528 4.896,0 7.416,2.52 2.592,2.52 3.168,9 l -5.256,1.296 q -0.432,-4.608 -1.656,-6.336 -1.152,-1.8 -3.528,-1.8 -2.304,0 -3.672,2.304 -1.368,2.232 -1.368,8.28 v 22.248 q 0,5.904 1.296,8.136 1.368,2.232 3.816,2.232 5.472,0 5.616,-9.72 v -8.784 z"
     style="font-style:normal;font-variant:normal;font-weight:normal;font-stretch:normal;font-size:72px;font-family:'Pathway Gothic One';-inkscape-font-specification:'Pathway Gothic One';letter-spacing:13.5px;fill:#e6e6e6;stroke-width:0.75"
     id="path1080" /></g>


<path
   style="fill:#e6e6e6;fill-opacity:0.28350514;stroke-width:0.59582168"
   d="M 171.24585,13.629069 C 145.2724,16.777796 119.21082,25.963085 96.797931,39.867905 53.589735,66.674008 22.50692,113.70217 14.900324,163.77861 c -2.604729,17.14767 -2.491264,41.65553 0.267574,57.7947 8.588886,50.24491 38.404591,94.85802 81.630033,122.14264 7.534759,4.75607 24.367399,13.12558 32.174369,15.99773 39.91568,14.68473 81.97793,15.26388 121.54763,1.67358 28.58087,-9.81617 55.029,-27.31107 74.60205,-49.34774 20.20871,-22.75233 34.03968,-48.98731 41.25402,-78.25187 1.09061,-4.42397 2.44118,-10.72479 3.00126,-14.0018 2.23872,-13.09859 2.10855,-43.45084 -0.24461,-57.03369 -6.42526,-37.08788 -23.74026,-70.947023 -49.63338,-97.057191 -29.45612,-29.70302 -66.7195,-47.622514 -108.30357,-52.081844 -9.80665,-1.051623 -31.21404,-1.043084 -39.94985,0.01597 z m 43.4973,3.573367 c 70.51926,9.774431 127.83086,59.406093 146.89662,127.211964 2.11377,7.51749 4.33767,19.03597 5.35584,27.74014 1.17029,10.00445 1.17276,29.8012 0.005,39.88928 -4.70171,40.61545 -22.67909,77.2709 -51.81551,105.65032 -13.68568,13.3301 -26.87284,22.8117 -43.14433,31.02087 -18.99024,9.58081 -36.19225,14.97767 -57.56819,18.0611 -8.37649,1.20829 -37.52802,1.00582 -46.17619,-0.32071 C 136.13426,361.52206 108.12578,349.63686 83.094026,330.30032 69.384726,319.71015 52.468052,300.74944 42.615286,284.93053 13.309619,237.87942 7.9216697,178.31635 28.347616,127.20329 49.740725,73.670042 95.805011,33.878338 151.91143,20.465198 c 6.4453,-1.54085 20.12009,-3.750693 27.1099,-4.380944 5.77276,-0.520513 29.18693,0.212408 35.72182,1.118182 z"
   id="path965"
   inkscape:connector-curvature="0" /></g></svg>